<svg width="720" height="420" viewBox="0 0 720 420" fill="none" xmlns="http://www.w3.org/2000/svg">
  <defs>
    <linearGradient id="ctaBg" x1="80" y1="24" x2="650" y2="390" gradientUnits="userSpaceOnUse">
      <stop stop-color="#0F172A"/>
      <stop offset="1" stop-color="#1E293B"/>
    </linearGradient>
    <linearGradient id="ctaAccent" x1="169" y1="112" x2="538" y2="298" gradientUnits="userSpaceOnUse">
      <stop stop-color="#38BDF8"/>
      <stop offset="1" stop-color="#FB923C"/>
    </linearGradient>
  </defs>
  <rect x="16" y="16" width="688" height="388" rx="28" fill="url(#ctaBg)" stroke="rgba(255,255,255,0.14)"/>
  <circle cx="590" cy="78" r="42" fill="#FB923C" fill-opacity="0.12"/>
  <circle cx="628" cy="120" r="72" fill="#38BDF8" fill-opacity="0.08"/>
  <rect x="56" y="60" width="160" height="34" rx="17" fill="#FB923C" fill-opacity="0.18"/>
  <text x="80" y="82" fill="#FDBA74" font-family="Segoe UI, Arial, sans-serif" font-size="16" font-weight="700" letter-spacing="1.8">CTA</text>
  <text x="56" y="132" fill="#F8FAFC" font-family="Segoe UI, Arial, sans-serif" font-size="38" font-weight="800">Adaptive Commercial</text>
  <text x="56" y="174" fill="#F8FAFC" font-family="Segoe UI, Arial, sans-serif" font-size="38" font-weight="800">Systems</text>
  <text x="56" y="214" fill="#CBD5E1" font-family="Segoe UI, Arial, sans-serif" font-size="20" font-weight="500">Turning strategy into measurable revenue</text>
  <path d="M95 290C132 241 191 214 264 214C343 214 393 251 446 251C492 251 536 230 571 193" stroke="url(#ctaAccent)" stroke-width="12" stroke-linecap="round"/>
  <circle cx="95" cy="290" r="14" fill="#38BDF8"/>
  <circle cx="264" cy="214" r="14" fill="#F8FAFC"/>
  <circle cx="446" cy="251" r="14" fill="#F8FAFC"/>
  <circle cx="571" cy="193" r="14" fill="#FB923C"/>
  <rect x="56" y="312" width="170" height="48" rx="14" fill="#0B1220" stroke="#334155"/>
  <rect x="250" y="312" width="190" height="48" rx="14" fill="#0B1220" stroke="#334155"/>
  <rect x="464" y="312" width="192" height="48" rx="14" fill="#0B1220" stroke="#334155"/>
  <text x="84" y="341" fill="#E2E8F0" font-family="Segoe UI, Arial, sans-serif" font-size="16" font-weight="700">AI-Augmented Sales</text>
  <text x="280" y="341" fill="#E2E8F0" font-family="Segoe UI, Arial, sans-serif" font-size="16" font-weight="700">Commercial Intelligence</text>
  <text x="509" y="341" fill="#E2E8F0" font-family="Segoe UI, Arial, sans-serif" font-size="16" font-weight="700">Human Execution</text>
 </svg>
